<svg xmlns="http://www.w3.org/2000/svg" width="1em" height="1em" viewBox="0 0 512 512" fill="none">
<g clip-path="url(#clip0)">
<path fill-rule="evenodd" clip-rule="evenodd" d="M102.38 179.985L3.24926 343.184C-3.20296 353.806 0.253024 367.184 10.9684 373.064C21.6838 378.944 35.6009 375.101 42.0531 364.479L124.642 228.511L106.092 197.971C102.63 192.272 101.483 185.929 102.38 179.985Z" fill="white"/>
<path fill-rule="evenodd" clip-rule="evenodd" d="M230.004 307.187L149.225 174.2C142.771 163.576 128.852 159.731 118.135 165.612C107.418 171.493 103.961 184.874 110.414 195.498L206.178 353.156C206.522 348.28 208.027 343.366 210.798 338.805L230.004 307.187Z" fill="white"/>
<path fill-rule="evenodd" clip-rule="evenodd" d="M330.45 151.707L215.3 341.278C207.475 354.16 211.666 370.384 224.662 377.517C237.657 384.647 254.536 379.986 262.361 367.104L358.102 209.485L334.978 171.418C331.187 165.174 329.763 158.272 330.45 151.707Z" fill="white"/>
<path fill-rule="evenodd" clip-rule="evenodd" d="M386.55 143.115L506.916 341.274C514.742 354.158 510.549 370.386 497.552 377.518C484.554 384.65 467.674 379.988 459.847 367.104L339.481 168.944C331.655 156.06 335.846 139.832 348.844 132.7C361.841 125.567 378.723 130.23 386.55 143.115Z" fill="white"/>
<path d="M234.391 193.754C243.786 193.754 251.401 185.879 251.401 176.164C251.401 166.45 243.786 158.575 234.391 158.575C224.996 158.575 217.381 166.45 217.381 176.164C217.381 185.879 224.996 193.754 234.391 193.754Z" fill="white"/>
</g>
<defs>
<clipPath id="clip0">
<rect width="512" height="253.282" fill="white" transform="translate(0 129.359)"/>
</clipPath>
</defs>
</svg>
